# xmcd
#
# Track frame offsets:
#	150
#	17147
#	35007
#	51592
#	72077
#	86337
#	98684
#
# Disc length: 1591 seconds
#
# Revision: 1
# Processed by: cddbd v1.5.2PL0 Copyright (c) Steve Scherf et al.
# Submitted via: CDmax 1.9
#
DISCID=55063507
DTITLE=AJ Plug - Barefoot - The Grolloo Takes
DYEAR=2018
DGENRE=Blues
TTITLE0=River Blue
TTITLE1=Big City
TTITLE2=Blues Village
TTITLE3=Better Days
TTITLE4=My Heart Is Big Enough
TTITLE5=The Sun Shines Today
TTITLE6=Drown In My Sorrow
EXTD=
EXTT0=
EXTT1=
EXTT2=
EXTT3=
EXTT4=
EXTT5=
EXTT6=
PLAYORDER=
